<svg width="1224" height="107" viewBox="0 0 1224 107" fill="none" xmlns="http://www.w3.org/2000/svg">
<path d="M66 52.5C65.1716 52.5 64.5 53.1716 64.5 54C64.5 54.8284 65.1716 55.5 66 55.5L66 52.5ZM1133.06 55.0607C1133.65 54.4749 1133.65 53.5252 1133.06 52.9394L1123.51 43.3934C1122.93 42.8076 1121.98 42.8076 1121.39 43.3934C1120.81 43.9792 1120.81 44.929 1121.39 45.5147L1129.88 54L1121.39 62.4853C1120.81 63.0711 1120.81 64.0208 1121.39 64.6066C1121.98 65.1924 1122.93 65.1924 1123.51 64.6066L1133.06 55.0607ZM66 55.5L1132 55.5L1132 52.5L66 52.5L66 55.5Z" fill="#223843"/>
<circle cx="173" cy="54" r="7" fill="#223843"/>
<circle cx="457" cy="54" r="7" fill="#223843"/>
<circle cx="741" cy="54" r="7" fill="#223843"/>
<circle cx="1025" cy="54" r="7" fill="#223843"/>
<path d="M159.466 100H151.33V99.136L155.02 95.302C155.632 94.666 156.148 94.096 156.568 93.592C156.988 93.088 157.306 92.584 157.522 92.08C157.738 91.576 157.846 91.012 157.846 90.388C157.846 89.584 157.612 88.966 157.144 88.534C156.676 88.09 156.046 87.868 155.254 87.868C154.678 87.868 154.138 87.97 153.634 88.174C153.13 88.378 152.632 88.672 152.14 89.056L151.582 88.336C152.11 87.904 152.686 87.568 153.31 87.328C153.934 87.088 154.582 86.968 155.254 86.968C156.358 86.968 157.24 87.274 157.9 87.886C158.56 88.498 158.89 89.32 158.89 90.352C158.89 91.048 158.764 91.684 158.512 92.26C158.272 92.836 157.924 93.4 157.468 93.952C157.024 94.504 156.49 95.092 155.866 95.716L152.644 99.01V99.064H159.466V100ZM169.012 85.204V99.514C169.012 99.874 168.868 100 168.49 100C168.148 100.018 166.852 100.036 165.538 99.982C165.754 100.36 166.006 100.99 166.096 101.368C167.77 101.386 168.886 101.35 169.534 101.134C170.164 100.9 170.434 100.504 170.434 99.514V85.204H169.012ZM173.314 89.74C174.844 92.314 176.284 95.662 176.716 97.786L178.12 97.192C177.67 95.05 176.158 91.774 174.574 89.254L173.314 89.74ZM164.314 89.38C163.882 91.792 162.892 94.888 161.29 96.778C161.65 96.922 162.226 97.246 162.55 97.48C164.17 95.482 165.214 92.26 165.79 89.65L164.314 89.38ZM183.916 87.328V91.324H181.306V87.328H183.916ZM181.306 96.652V92.494H183.916V96.652H181.306ZM185.176 86.122H180.082V99.316H181.306V97.858H185.176V86.122ZM186.652 96.202C187.57 97.156 188.524 98.488 188.938 99.37L190.072 98.65C189.658 97.768 188.65 96.49 187.732 95.59L186.652 96.202ZM195.94 91.738V90.55H191.296V88.264H195.166V87.076H191.296V84.934H189.982V87.076H186.238V88.264H189.982V90.55H185.464V91.738H192.358V93.772H185.554V94.96H192.358V99.766C192.358 100.036 192.268 100.108 191.962 100.126C191.674 100.144 190.684 100.144 189.568 100.108C189.766 100.45 189.946 100.99 190 101.35C191.458 101.35 192.358 101.332 192.916 101.134C193.456 100.936 193.654 100.54 193.654 99.784V94.96H195.742V93.772H193.654V91.738H195.94Z" fill="#223843"/>
<path d="M430.817 90.118C430.817 90.97 430.565 91.666 430.061 92.206C429.557 92.746 428.909 93.088 428.117 93.232V93.304C429.125 93.424 429.893 93.754 430.421 94.294C430.949 94.822 431.213 95.536 431.213 96.436C431.213 97.54 430.823 98.44 430.043 99.136C429.263 99.832 428.093 100.18 426.533 100.18C425.837 100.18 425.189 100.12 424.589 100C424.001 99.88 423.461 99.7 422.969 99.46V98.47C423.461 98.71 424.025 98.908 424.661 99.064C425.297 99.22 425.921 99.298 426.533 99.298C427.757 99.298 428.663 99.04 429.251 98.524C429.839 97.996 430.133 97.288 430.133 96.4C430.133 95.464 429.785 94.798 429.089 94.402C428.393 93.994 427.463 93.79 426.299 93.79H424.931V92.89H426.317C427.313 92.89 428.135 92.662 428.783 92.206C429.431 91.738 429.755 91.06 429.755 90.172C429.755 89.416 429.509 88.846 429.017 88.462C428.525 88.066 427.871 87.868 427.055 87.868C426.371 87.868 425.753 87.97 425.201 88.174C424.661 88.378 424.127 88.66 423.599 89.02L423.077 88.3C423.569 87.916 424.145 87.598 424.805 87.346C425.465 87.094 426.209 86.968 427.037 86.968C428.237 86.968 429.167 87.256 429.827 87.832C430.487 88.396 430.817 89.158 430.817 90.118ZM437.82 95.608V94.672H442.176V95.608H437.82ZM457.584 96.796H455.442V100H454.452V96.796H447.99V95.968L454.38 87.076H455.442V95.86H457.584V96.796ZM454.452 95.86V91.09C454.452 90.394 454.452 89.848 454.452 89.452C454.464 89.044 454.476 88.63 454.488 88.21H454.452C454.284 88.486 454.128 88.744 453.984 88.984C453.84 89.224 453.672 89.482 453.48 89.758L449.07 95.86H454.452ZM466.229 85.204V99.514C466.229 99.874 466.085 100 465.707 100C465.365 100.018 464.069 100.036 462.755 99.982C462.971 100.36 463.223 100.99 463.313 101.368C464.987 101.386 466.103 101.35 466.751 101.134C467.381 100.9 467.651 100.504 467.651 99.514V85.204H466.229ZM470.531 89.74C472.061 92.314 473.501 95.662 473.933 97.786L475.337 97.192C474.887 95.05 473.375 91.774 471.791 89.254L470.531 89.74ZM461.531 89.38C461.099 91.792 460.109 94.888 458.507 96.778C458.867 96.922 459.443 97.246 459.767 97.48C461.387 95.482 462.431 92.26 463.007 89.65L461.531 89.38ZM481.133 87.328V91.324H478.523V87.328H481.133ZM478.523 96.652V92.494H481.133V96.652H478.523ZM482.393 86.122H477.299V99.316H478.523V97.858H482.393V86.122ZM483.869 96.202C484.787 97.156 485.741 98.488 486.155 99.37L487.289 98.65C486.875 97.768 485.867 96.49 484.949 95.59L483.869 96.202ZM493.157 91.738V90.55H488.513V88.264H492.383V87.076H488.513V84.934H487.199V87.076H483.455V88.264H487.199V90.55H482.681V91.738H489.575V93.772H482.771V94.96H489.575V99.766C489.575 100.036 489.485 100.108 489.179 100.126C488.891 100.144 487.901 100.144 486.785 100.108C486.983 100.45 487.163 100.99 487.217 101.35C488.675 101.35 489.575 101.332 490.133 101.134C490.673 100.936 490.871 100.54 490.871 99.784V94.96H492.959V93.772H490.871V91.738H493.157Z" fill="#223843"/>
<path d="M717.149 96.796H715.007V100H714.017V96.796H707.555V95.968L713.945 87.076H715.007V95.86H717.149V96.796ZM714.017 95.86V91.09C714.017 90.394 714.017 89.848 714.017 89.452C714.029 89.044 714.041 88.63 714.053 88.21H714.017C713.849 88.486 713.693 88.744 713.549 88.984C713.405 89.224 713.237 89.482 713.045 89.758L708.635 95.86H714.017ZM722.82 95.608V94.672H727.176V95.608H722.82ZM733.692 94.528C733.692 92.992 733.884 91.66 734.268 90.532C734.664 89.392 735.27 88.51 736.086 87.886C736.914 87.262 737.988 86.95 739.308 86.95C739.968 86.95 740.532 87.016 741 87.148V88.066C740.784 87.982 740.532 87.922 740.244 87.886C739.956 87.85 739.656 87.832 739.344 87.832C737.796 87.832 736.644 88.354 735.888 89.398C735.144 90.442 734.748 91.924 734.7 93.844H734.772C735.024 93.376 735.426 92.956 735.978 92.584C736.53 92.212 737.262 92.026 738.174 92.026C739.326 92.026 740.238 92.374 740.91 93.07C741.582 93.754 741.918 94.696 741.918 95.896C741.918 97.192 741.564 98.23 740.856 99.01C740.16 99.79 739.188 100.18 737.94 100.18C737.028 100.18 736.254 99.94 735.618 99.46C734.994 98.968 734.514 98.302 734.178 97.462C733.854 96.61 733.692 95.632 733.692 94.528ZM737.94 99.298C738.852 99.298 739.572 99.01 740.1 98.434C740.628 97.846 740.892 97 740.892 95.896C740.892 94.96 740.652 94.222 740.172 93.682C739.692 93.142 738.972 92.872 738.012 92.872C737.352 92.872 736.776 93.004 736.284 93.268C735.804 93.532 735.432 93.868 735.168 94.276C734.904 94.672 734.772 95.068 734.772 95.464C734.772 95.836 734.826 96.244 734.934 96.688C735.042 97.12 735.216 97.534 735.456 97.93C735.708 98.326 736.032 98.656 736.428 98.92C736.836 99.172 737.34 99.298 737.94 99.298ZM751.229 85.204V99.514C751.229 99.874 751.085 100 750.707 100C750.365 100.018 749.069 100.036 747.755 99.982C747.971 100.36 748.223 100.99 748.313 101.368C749.987 101.386 751.103 101.35 751.751 101.134C752.381 100.9 752.651 100.504 752.651 99.514V85.204H751.229ZM755.531 89.74C757.061 92.314 758.501 95.662 758.933 97.786L760.337 97.192C759.887 95.05 758.375 91.774 756.791 89.254L755.531 89.74ZM746.531 89.38C746.099 91.792 745.109 94.888 743.507 96.778C743.867 96.922 744.443 97.246 744.767 97.48C746.387 95.482 747.431 92.26 748.007 89.65L746.531 89.38ZM766.133 87.328V91.324H763.523V87.328H766.133ZM763.523 96.652V92.494H766.133V96.652H763.523ZM767.393 86.122H762.299V99.316H763.523V97.858H767.393V86.122ZM768.869 96.202C769.787 97.156 770.741 98.488 771.155 99.37L772.289 98.65C771.875 97.768 770.867 96.49 769.949 95.59L768.869 96.202ZM778.157 91.738V90.55H773.513V88.264H777.383V87.076H773.513V84.934H772.199V87.076H768.455V88.264H772.199V90.55H767.681V91.738H774.575V93.772H767.771V94.96H774.575V99.766C774.575 100.036 774.485 100.108 774.179 100.126C773.891 100.144 772.901 100.144 771.785 100.108C771.983 100.45 772.163 100.99 772.217 101.35C773.675 101.35 774.575 101.332 775.133 101.134C775.673 100.936 775.871 100.54 775.871 99.784V94.96H777.959V93.772H775.871V91.738H778.157Z" fill="#223843"/>
<path d="M988.474 94.528C988.474 92.992 988.666 91.66 989.05 90.532C989.446 89.392 990.052 88.51 990.868 87.886C991.696 87.262 992.77 86.95 994.09 86.95C994.75 86.95 995.314 87.016 995.782 87.148V88.066C995.566 87.982 995.314 87.922 995.026 87.886C994.738 87.85 994.438 87.832 994.126 87.832C992.578 87.832 991.426 88.354 990.67 89.398C989.926 90.442 989.53 91.924 989.482 93.844H989.554C989.806 93.376 990.208 92.956 990.76 92.584C991.312 92.212 992.044 92.026 992.956 92.026C994.108 92.026 995.02 92.374 995.692 93.07C996.364 93.754 996.7 94.696 996.7 95.896C996.7 97.192 996.346 98.23 995.638 99.01C994.942 99.79 993.97 100.18 992.722 100.18C991.81 100.18 991.036 99.94 990.4 99.46C989.776 98.968 989.296 98.302 988.96 97.462C988.636 96.61 988.474 95.632 988.474 94.528ZM992.722 99.298C993.634 99.298 994.354 99.01 994.882 98.434C995.41 97.846 995.674 97 995.674 95.896C995.674 94.96 995.434 94.222 994.954 93.682C994.474 93.142 993.754 92.872 992.794 92.872C992.134 92.872 991.558 93.004 991.066 93.268C990.586 93.532 990.214 93.868 989.95 94.276C989.686 94.672 989.554 95.068 989.554 95.464C989.554 95.836 989.608 96.244 989.716 96.688C989.824 97.12 989.998 97.534 990.238 97.93C990.49 98.326 990.814 98.656 991.21 98.92C991.618 99.172 992.122 99.298 992.722 99.298ZM1006.01 85.204V99.514C1006.01 99.874 1005.87 100 1005.49 100C1005.15 100.018 1003.85 100.036 1002.54 99.982C1002.75 100.36 1003.01 100.99 1003.1 101.368C1004.77 101.386 1005.89 101.35 1006.53 101.134C1007.16 100.9 1007.43 100.504 1007.43 99.514V85.204H1006.01ZM1010.31 89.74C1011.84 92.314 1013.28 95.662 1013.72 97.786L1015.12 97.192C1014.67 95.05 1013.16 91.774 1011.57 89.254L1010.31 89.74ZM1001.31 89.38C1000.88 91.792 999.892 94.888 998.29 96.778C998.65 96.922 999.226 97.246 999.55 97.48C1001.17 95.482 1002.21 92.26 1002.79 89.65L1001.31 89.38ZM1020.92 87.328V91.324H1018.31V87.328H1020.92ZM1018.31 96.652V92.494H1020.92V96.652H1018.31ZM1022.18 86.122H1017.08V99.316H1018.31V97.858H1022.18V86.122ZM1023.65 96.202C1024.57 97.156 1025.52 98.488 1025.94 99.37L1027.07 98.65C1026.66 97.768 1025.65 96.49 1024.73 95.59L1023.65 96.202ZM1032.94 91.738V90.55H1028.3V88.264H1032.17V87.076H1028.3V84.934H1026.98V87.076H1023.24V88.264H1026.98V90.55H1022.46V91.738H1029.36V93.772H1022.55V94.96H1029.36V99.766C1029.36 100.036 1029.27 100.108 1028.96 100.126C1028.67 100.144 1027.68 100.144 1026.57 100.108C1026.77 100.45 1026.95 100.99 1027 101.35C1028.46 101.35 1029.36 101.332 1029.92 101.134C1030.46 100.936 1030.65 100.54 1030.65 99.784V94.96H1032.74V93.772H1030.65V91.738H1032.94ZM1044.26 91.468C1043.76 90.244 1042.61 88.48 1041.42 87.166L1040.23 87.76C1041.36 89.074 1042.52 90.91 1043 92.152L1044.26 91.468ZM1041.71 94.96C1040.52 95.464 1039.31 95.986 1038.16 96.472L1037.89 85.852L1036.52 85.906L1036.83 97.03C1035.89 97.426 1035.05 97.768 1034.34 98.038L1034.83 99.424C1036.81 98.56 1039.53 97.372 1042.01 96.238L1041.71 94.96ZM1051.05 100.288C1050.13 98.956 1048.22 96.958 1046.62 95.338C1047.88 92.926 1048.56 89.866 1049 86.014L1047.54 85.87C1046.75 93.646 1044.84 98.002 1038.66 100.27C1038.99 100.54 1039.55 101.152 1039.73 101.422C1042.53 100.252 1044.5 98.686 1045.9 96.562C1047.43 98.182 1049.1 100.072 1049.93 101.314L1051.05 100.288ZM1060.75 99.19V92.062H1067.45V90.73H1060.75V85.222H1059.35V99.19H1052.63V100.522H1068.67V99.19H1060.75Z" fill="#223843"/>
<path d="M6.82 92.96L4.84 93.58V89.66H6.94V88.28H4.84V84.28H3.46V88.28H0.9V89.66H3.46V93.98C2.38 94.32 1.4 94.62 0.62 94.84L1 96.26C1.74 96.04 2.58 95.78 3.46 95.48V100.74C3.46 101.02 3.36 101.1 3.1 101.1C2.88 101.12 2.1 101.12 1.24 101.08C1.44 101.5 1.62 102.1 1.68 102.48C2.94 102.5 3.7 102.44 4.16 102.2C4.66 101.96 4.84 101.56 4.84 100.74V95.02L7.02 94.32L6.82 92.96ZM8.96 96.92C9.82 97.96 10.78 99.46 11.14 100.42L12.38 99.68C11.96 98.72 10.98 97.28 10.1 96.24L8.96 96.92ZM19.14 92.12V90.74H13.92V88.2H18.18V86.84H13.92V84.36H12.5V86.84H8.26V88.2H12.5V90.74H7.24V92.12H15.14V94.32H7.48V95.68H15.14V100.72C15.14 101 15.06 101.08 14.74 101.1C14.46 101.12 13.4 101.12 12.28 101.08C12.48 101.5 12.68 102.08 12.74 102.52C14.2 102.52 15.18 102.5 15.78 102.26C16.36 102.04 16.56 101.64 16.56 100.72V95.68H19.02V94.32H16.56V92.12H19.14ZM32.6 87.42L32.32 87.5H27.22C27.64 86.58 28.02 85.62 28.34 84.64L26.78 84.28C25.54 88.14 23.44 91.64 20.76 93.8C21.14 94.06 21.8 94.6 22.08 94.88C23.76 93.38 25.26 91.34 26.5 88.98H31.72C29.94 95.18 25.82 99.22 20.98 101.28C21.34 101.54 21.9 102.2 22.12 102.58C25.54 101.02 28.68 98.38 30.94 94.62C32.54 98.12 35.02 101 38.2 102.5C38.44 102.1 38.9 101.48 39.26 101.2C35.88 99.78 33.2 96.6 31.84 93C32.58 91.46 33.2 89.76 33.66 87.9L32.6 87.42ZM58.8 87.6V86.24H51.34V84.28H49.82V86.24H42.48V91.96C42.48 94.84 42.34 98.88 40.7 101.72C41.04 101.88 41.66 102.3 41.92 102.56C43.64 99.54 43.88 95.04 43.88 91.96V87.6H58.8ZM54 91.06V93.16H49.16V91.06H54ZM55.44 94.36V91.06H58.66V89.84H55.44V88.1H54V89.84H49.16V88.1H47.74V89.84H44.56V91.06H47.74V94.36H55.44ZM55.12 96.84C54.3 97.9 53.12 98.72 51.74 99.38C50.38 98.7 49.26 97.86 48.5 96.84H55.12ZM56.36 95.56L56.1 95.62H44.8V96.84H47.88L47.08 97.14C47.88 98.28 48.94 99.24 50.22 100C48.34 100.66 46.22 101.06 44.06 101.28C44.28 101.6 44.58 102.16 44.68 102.52C47.16 102.22 49.6 101.68 51.72 100.8C53.62 101.68 55.86 102.24 58.3 102.56C58.46 102.18 58.84 101.6 59.16 101.3C57.02 101.08 55.02 100.66 53.28 100.04C55 99.06 56.4 97.78 57.3 96.06L56.36 95.56Z" fill="#223843"/>
<path d="M157.013 10.118C157.013 10.97 156.761 11.666 156.257 12.206C155.753 12.746 155.105 13.088 154.313 13.232V13.304C155.321 13.424 156.089 13.754 156.617 14.294C157.145 14.822 157.409 15.536 157.409 16.436C157.409 17.54 157.019 18.44 156.239 19.136C155.459 19.832 154.289 20.18 152.729 20.18C152.033 20.18 151.385 20.12 150.785 20C150.197 19.88 149.657 19.7 149.165 19.46V18.47C149.657 18.71 150.221 18.908 150.857 19.064C151.493 19.22 152.117 19.298 152.729 19.298C153.953 19.298 154.859 19.04 155.447 18.524C156.035 17.996 156.329 17.288 156.329 16.4C156.329 15.464 155.981 14.798 155.285 14.402C154.589 13.994 153.659 13.79 152.495 13.79H151.127V12.89H152.513C153.509 12.89 154.331 12.662 154.979 12.206C155.627 11.738 155.951 11.06 155.951 10.172C155.951 9.416 155.705 8.846 155.213 8.462C154.721 8.066 154.067 7.868 153.251 7.868C152.567 7.868 151.949 7.97 151.397 8.174C150.857 8.378 150.323 8.66 149.795 9.02L149.273 8.3C149.765 7.916 150.341 7.598 151.001 7.346C151.661 7.094 152.405 6.968 153.233 6.968C154.433 6.968 155.363 7.256 156.023 7.832C156.683 8.396 157.013 9.158 157.013 10.118ZM164.016 15.608V14.672H168.372V15.608H164.016ZM174.888 14.528C174.888 12.992 175.08 11.66 175.464 10.532C175.86 9.392 176.466 8.51 177.282 7.886C178.11 7.262 179.184 6.95 180.504 6.95C181.164 6.95 181.728 7.016 182.196 7.148V8.066C181.98 7.982 181.728 7.922 181.44 7.886C181.152 7.85 180.852 7.832 180.54 7.832C178.992 7.832 177.84 8.354 177.084 9.398C176.34 10.442 175.944 11.924 175.896 13.844H175.968C176.22 13.376 176.622 12.956 177.174 12.584C177.726 12.212 178.458 12.026 179.37 12.026C180.522 12.026 181.434 12.374 182.106 13.07C182.778 13.754 183.114 14.696 183.114 15.896C183.114 17.192 182.76 18.23 182.052 19.01C181.356 19.79 180.384 20.18 179.136 20.18C178.224 20.18 177.45 19.94 176.814 19.46C176.19 18.968 175.71 18.302 175.374 17.462C175.05 16.61 174.888 15.632 174.888 14.528ZM179.136 19.298C180.048 19.298 180.768 19.01 181.296 18.434C181.824 17.846 182.088 17 182.088 15.896C182.088 14.96 181.848 14.222 181.368 13.682C180.888 13.142 180.168 12.872 179.208 12.872C178.548 12.872 177.972 13.004 177.48 13.268C177 13.532 176.628 13.868 176.364 14.276C176.1 14.672 175.968 15.068 175.968 15.464C175.968 15.836 176.022 16.244 176.13 16.688C176.238 17.12 176.412 17.534 176.652 17.93C176.904 18.326 177.228 18.656 177.624 18.92C178.032 19.172 178.536 19.298 179.136 19.298ZM187.584 6.968C188.436 6.968 189.078 7.316 189.51 8.012C189.942 8.708 190.158 9.698 190.158 10.982C190.158 12.29 189.936 13.292 189.492 13.988C189.06 14.684 188.418 15.032 187.566 15.032C186.75 15.032 186.12 14.684 185.676 13.988C185.244 13.292 185.028 12.29 185.028 10.982C185.028 9.674 185.244 8.678 185.676 7.994C186.108 7.31 186.744 6.968 187.584 6.968ZM195.396 7.148L188.268 20H187.332L194.46 7.148H195.396ZM187.584 7.76C186.48 7.76 185.928 8.834 185.928 10.982C185.928 13.154 186.474 14.24 187.566 14.24C188.694 14.24 189.258 13.154 189.258 10.982C189.258 9.926 189.12 9.128 188.844 8.588C188.58 8.036 188.16 7.76 187.584 7.76ZM195.126 12.116C195.978 12.116 196.62 12.464 197.052 13.16C197.484 13.856 197.7 14.846 197.7 16.13C197.7 17.438 197.478 18.44 197.034 19.136C196.59 19.832 195.948 20.18 195.108 20.18C194.28 20.18 193.65 19.832 193.218 19.136C192.786 18.44 192.57 17.438 192.57 16.13C192.57 14.822 192.786 13.826 193.218 13.142C193.65 12.458 194.286 12.116 195.126 12.116ZM195.126 12.908C194.022 12.908 193.47 13.982 193.47 16.13C193.47 18.302 194.016 19.388 195.108 19.388C196.236 19.388 196.8 18.302 196.8 16.13C196.8 15.074 196.662 14.276 196.386 13.736C196.122 13.184 195.702 12.908 195.126 12.908Z" fill="#223843"/>
<path d="M433.127 12.224C434.435 12.224 435.467 12.554 436.223 13.214C436.991 13.874 437.375 14.804 437.375 16.004C437.375 17.3 436.955 18.32 436.115 19.064C435.275 19.808 434.135 20.18 432.695 20.18C432.023 20.18 431.405 20.114 430.841 19.982C430.289 19.85 429.815 19.676 429.419 19.46V18.434C429.839 18.686 430.337 18.89 430.913 19.046C431.501 19.202 432.101 19.28 432.713 19.28C433.805 19.28 434.681 19.01 435.341 18.47C436.001 17.918 436.331 17.12 436.331 16.076C436.331 15.14 436.043 14.414 435.467 13.898C434.903 13.382 434.039 13.124 432.875 13.124C432.419 13.124 431.975 13.154 431.543 13.214C431.111 13.274 430.715 13.352 430.355 13.448L429.797 13.07L430.319 7.148H436.547V8.084H431.183L430.823 12.512C431.075 12.464 431.393 12.404 431.777 12.332C432.161 12.26 432.611 12.224 433.127 12.224ZM443.874 15.608V14.672H448.23V15.608H443.874ZM459.715 20H458.707V10.442C458.707 9.926 458.707 9.506 458.707 9.182C458.707 8.846 458.719 8.528 458.743 8.228C458.575 8.396 458.419 8.54 458.275 8.66C458.131 8.78 457.939 8.936 457.699 9.128L455.899 10.496L455.359 9.776L458.851 7.148H459.715V20ZM473.022 20H464.886V19.136L468.576 15.302C469.188 14.666 469.704 14.096 470.124 13.592C470.544 13.088 470.862 12.584 471.078 12.08C471.294 11.576 471.402 11.012 471.402 10.388C471.402 9.584 471.168 8.966 470.7 8.534C470.232 8.09 469.602 7.868 468.81 7.868C468.234 7.868 467.694 7.97 467.19 8.174C466.686 8.378 466.188 8.672 465.696 9.056L465.138 8.336C465.666 7.904 466.242 7.568 466.866 7.328C467.49 7.088 468.138 6.968 468.81 6.968C469.914 6.968 470.796 7.274 471.456 7.886C472.116 8.498 472.446 9.32 472.446 10.352C472.446 11.048 472.32 11.684 472.068 12.26C471.828 12.836 471.48 13.4 471.024 13.952C470.58 14.504 470.046 15.092 469.422 15.716L466.2 19.01V19.064H473.022V20ZM477.725 6.968C478.577 6.968 479.219 7.316 479.651 8.012C480.083 8.708 480.299 9.698 480.299 10.982C480.299 12.29 480.077 13.292 479.633 13.988C479.201 14.684 478.559 15.032 477.707 15.032C476.891 15.032 476.261 14.684 475.817 13.988C475.385 13.292 475.169 12.29 475.169 10.982C475.169 9.674 475.385 8.678 475.817 7.994C476.249 7.31 476.885 6.968 477.725 6.968ZM485.537 7.148L478.409 20H477.473L484.601 7.148H485.537ZM477.725 7.76C476.621 7.76 476.069 8.834 476.069 10.982C476.069 13.154 476.615 14.24 477.707 14.24C478.835 14.24 479.399 13.154 479.399 10.982C479.399 9.926 479.261 9.128 478.985 8.588C478.721 8.036 478.301 7.76 477.725 7.76ZM485.267 12.116C486.119 12.116 486.761 12.464 487.193 13.16C487.625 13.856 487.841 14.846 487.841 16.13C487.841 17.438 487.619 18.44 487.175 19.136C486.731 19.832 486.089 20.18 485.249 20.18C484.421 20.18 483.791 19.832 483.359 19.136C482.927 18.44 482.711 17.438 482.711 16.13C482.711 14.822 482.927 13.826 483.359 13.142C483.791 12.458 484.427 12.116 485.267 12.116ZM485.267 12.908C484.163 12.908 483.611 13.982 483.611 16.13C483.611 18.302 484.157 19.388 485.249 19.388C486.377 19.388 486.941 18.302 486.941 16.13C486.941 15.074 486.803 14.276 486.527 13.736C486.263 13.184 485.843 12.908 485.267 12.908Z" fill="#223843"/>
<path d="M714.138 20H713.13V10.442C713.13 9.926 713.13 9.506 713.13 9.182C713.13 8.846 713.142 8.528 713.166 8.228C712.998 8.396 712.842 8.54 712.698 8.66C712.554 8.78 712.362 8.936 712.122 9.128L710.322 10.496L709.782 9.776L713.274 7.148H714.138V20ZM723.269 12.224C724.577 12.224 725.609 12.554 726.365 13.214C727.133 13.874 727.517 14.804 727.517 16.004C727.517 17.3 727.097 18.32 726.257 19.064C725.417 19.808 724.277 20.18 722.837 20.18C722.165 20.18 721.547 20.114 720.983 19.982C720.431 19.85 719.957 19.676 719.561 19.46V18.434C719.981 18.686 720.479 18.89 721.055 19.046C721.643 19.202 722.243 19.28 722.855 19.28C723.947 19.28 724.823 19.01 725.483 18.47C726.143 17.918 726.473 17.12 726.473 16.076C726.473 15.14 726.185 14.414 725.609 13.898C725.045 13.382 724.181 13.124 723.017 13.124C722.561 13.124 722.117 13.154 721.685 13.214C721.253 13.274 720.857 13.352 720.497 13.448L719.939 13.07L720.461 7.148H726.689V8.084H721.325L720.965 12.512C721.217 12.464 721.535 12.404 721.919 12.332C722.303 12.26 722.753 12.224 723.269 12.224ZM734.016 15.608V14.672H738.372V15.608H734.016ZM752.88 20H744.744V19.136L748.434 15.302C749.046 14.666 749.562 14.096 749.982 13.592C750.402 13.088 750.72 12.584 750.936 12.08C751.152 11.576 751.26 11.012 751.26 10.388C751.26 9.584 751.026 8.966 750.558 8.534C750.09 8.09 749.46 7.868 748.668 7.868C748.092 7.868 747.552 7.97 747.048 8.174C746.544 8.378 746.046 8.672 745.554 9.056L744.996 8.336C745.524 7.904 746.1 7.568 746.724 7.328C747.348 7.088 747.996 6.968 748.668 6.968C749.772 6.968 750.654 7.274 751.314 7.886C751.974 8.498 752.304 9.32 752.304 10.352C752.304 11.048 752.178 11.684 751.926 12.26C751.686 12.836 751.338 13.4 750.882 13.952C750.438 14.504 749.904 15.092 749.28 15.716L746.058 19.01V19.064H752.88V20ZM763.326 13.538C763.326 15.686 762.99 17.33 762.318 18.47C761.658 19.61 760.614 20.18 759.186 20.18C757.83 20.18 756.804 19.616 756.108 18.488C755.412 17.36 755.064 15.71 755.064 13.538C755.064 12.23 755.196 11.084 755.46 10.1C755.736 9.104 756.174 8.33 756.774 7.778C757.386 7.226 758.196 6.95 759.204 6.95C760.188 6.95 760.98 7.22 761.58 7.76C762.192 8.3 762.636 9.068 762.912 10.064C763.188 11.048 763.326 12.206 763.326 13.538ZM756.09 13.538C756.09 15.47 756.336 16.91 756.828 17.858C757.332 18.806 758.118 19.28 759.186 19.28C760.278 19.28 761.064 18.806 761.544 17.858C762.036 16.91 762.282 15.47 762.282 13.538C762.282 12.35 762.186 11.33 761.994 10.478C761.814 9.626 761.496 8.978 761.04 8.534C760.596 8.078 759.984 7.85 759.204 7.85C758.424 7.85 757.806 8.078 757.35 8.534C756.894 8.99 756.57 9.644 756.378 10.496C756.186 11.348 756.09 12.362 756.09 13.538ZM767.867 6.968C768.719 6.968 769.361 7.316 769.793 8.012C770.225 8.708 770.441 9.698 770.441 10.982C770.441 12.29 770.219 13.292 769.775 13.988C769.343 14.684 768.701 15.032 767.849 15.032C767.033 15.032 766.403 14.684 765.959 13.988C765.527 13.292 765.311 12.29 765.311 10.982C765.311 9.674 765.527 8.678 765.959 7.994C766.391 7.31 767.027 6.968 767.867 6.968ZM775.679 7.148L768.551 20H767.615L774.743 7.148H775.679ZM767.867 7.76C766.763 7.76 766.211 8.834 766.211 10.982C766.211 13.154 766.757 14.24 767.849 14.24C768.977 14.24 769.541 13.154 769.541 10.982C769.541 9.926 769.403 9.128 769.127 8.588C768.863 8.036 768.443 7.76 767.867 7.76ZM775.409 12.116C776.261 12.116 776.903 12.464 777.335 13.16C777.767 13.856 777.983 14.846 777.983 16.13C777.983 17.438 777.761 18.44 777.317 19.136C776.873 19.832 776.231 20.18 775.391 20.18C774.563 20.18 773.933 19.832 773.501 19.136C773.069 18.44 772.853 17.438 772.853 16.13C772.853 14.822 773.069 13.826 773.501 13.142C773.933 12.458 774.569 12.116 775.409 12.116ZM775.409 12.908C774.305 12.908 773.753 13.982 773.753 16.13C773.753 18.302 774.299 19.388 775.391 19.388C776.519 19.388 777.083 18.302 777.083 16.13C777.083 15.074 776.945 14.276 776.669 13.736C776.405 13.184 775.985 12.908 775.409 12.908Z" fill="#223843"/>
<path d="M1002.16 20H994.026V19.136L997.716 15.302C998.328 14.666 998.844 14.096 999.264 13.592C999.684 13.088 1000 12.584 1000.22 12.08C1000.43 11.576 1000.54 11.012 1000.54 10.388C1000.54 9.584 1000.31 8.966 999.84 8.534C999.372 8.09 998.742 7.868 997.95 7.868C997.374 7.868 996.834 7.97 996.33 8.174C995.826 8.378 995.328 8.672 994.836 9.056L994.278 8.336C994.806 7.904 995.382 7.568 996.006 7.328C996.63 7.088 997.278 6.968 997.95 6.968C999.054 6.968 999.936 7.274 1000.6 7.886C1001.26 8.498 1001.59 9.32 1001.59 10.352C1001.59 11.048 1001.46 11.684 1001.21 12.26C1000.97 12.836 1000.62 13.4 1000.16 13.952C999.72 14.504 999.186 15.092 998.562 15.716L995.34 19.01V19.064H1002.16V20ZM1012.61 13.538C1012.61 15.686 1012.27 17.33 1011.6 18.47C1010.94 19.61 1009.89 20.18 1008.47 20.18C1007.11 20.18 1006.08 19.616 1005.39 18.488C1004.69 17.36 1004.34 15.71 1004.34 13.538C1004.34 12.23 1004.48 11.084 1004.74 10.1C1005.02 9.104 1005.45 8.33 1006.05 7.778C1006.67 7.226 1007.48 6.95 1008.48 6.95C1009.47 6.95 1010.26 7.22 1010.86 7.76C1011.47 8.3 1011.92 9.068 1012.19 10.064C1012.47 11.048 1012.61 12.206 1012.61 13.538ZM1005.37 13.538C1005.37 15.47 1005.62 16.91 1006.11 17.858C1006.61 18.806 1007.4 19.28 1008.47 19.28C1009.56 19.28 1010.34 18.806 1010.82 17.858C1011.32 16.91 1011.56 15.47 1011.56 13.538C1011.56 12.35 1011.47 11.33 1011.27 10.478C1011.09 9.626 1010.78 8.978 1010.32 8.534C1009.88 8.078 1009.26 7.85 1008.48 7.85C1007.7 7.85 1007.09 8.078 1006.63 8.534C1006.17 8.99 1005.85 9.644 1005.66 10.496C1005.47 11.348 1005.37 12.362 1005.37 13.538ZM1019.02 15.608V14.672H1023.37V15.608H1019.02ZM1037.45 10.118C1037.45 10.97 1037.2 11.666 1036.69 12.206C1036.19 12.746 1035.54 13.088 1034.75 13.232V13.304C1035.76 13.424 1036.52 13.754 1037.05 14.294C1037.58 14.822 1037.84 15.536 1037.84 16.436C1037.84 17.54 1037.45 18.44 1036.67 19.136C1035.89 19.832 1034.72 20.18 1033.16 20.18C1032.47 20.18 1031.82 20.12 1031.22 20C1030.63 19.88 1030.09 19.7 1029.6 19.46V18.47C1030.09 18.71 1030.66 18.908 1031.29 19.064C1031.93 19.22 1032.55 19.298 1033.16 19.298C1034.39 19.298 1035.29 19.04 1035.88 18.524C1036.47 17.996 1036.76 17.288 1036.76 16.4C1036.76 15.464 1036.42 14.798 1035.72 14.402C1035.02 13.994 1034.09 13.79 1032.93 13.79H1031.56V12.89H1032.95C1033.94 12.89 1034.77 12.662 1035.41 12.206C1036.06 11.738 1036.39 11.06 1036.39 10.172C1036.39 9.416 1036.14 8.846 1035.65 8.462C1035.16 8.066 1034.5 7.868 1033.69 7.868C1033 7.868 1032.38 7.97 1031.83 8.174C1031.29 8.378 1030.76 8.66 1030.23 9.02L1029.71 8.3C1030.2 7.916 1030.78 7.598 1031.44 7.346C1032.1 7.094 1032.84 6.968 1033.67 6.968C1034.87 6.968 1035.8 7.256 1036.46 7.832C1037.12 8.396 1037.45 9.158 1037.45 10.118ZM1048.33 13.538C1048.33 15.686 1047.99 17.33 1047.32 18.47C1046.66 19.61 1045.61 20.18 1044.19 20.18C1042.83 20.18 1041.8 19.616 1041.11 18.488C1040.41 17.36 1040.06 15.71 1040.06 13.538C1040.06 12.23 1040.2 11.084 1040.46 10.1C1040.74 9.104 1041.17 8.33 1041.77 7.778C1042.39 7.226 1043.2 6.95 1044.2 6.95C1045.19 6.95 1045.98 7.22 1046.58 7.76C1047.19 8.3 1047.64 9.068 1047.91 10.064C1048.19 11.048 1048.33 12.206 1048.33 13.538ZM1041.09 13.538C1041.09 15.47 1041.34 16.91 1041.83 17.858C1042.33 18.806 1043.12 19.28 1044.19 19.28C1045.28 19.28 1046.06 18.806 1046.54 17.858C1047.04 16.91 1047.28 15.47 1047.28 13.538C1047.28 12.35 1047.19 11.33 1046.99 10.478C1046.81 9.626 1046.5 8.978 1046.04 8.534C1045.6 8.078 1044.98 7.85 1044.2 7.85C1043.42 7.85 1042.81 8.078 1042.35 8.534C1041.89 8.99 1041.57 9.644 1041.38 10.496C1041.19 11.348 1041.09 12.362 1041.09 13.538ZM1052.87 6.968C1053.72 6.968 1054.36 7.316 1054.79 8.012C1055.22 8.708 1055.44 9.698 1055.44 10.982C1055.44 12.29 1055.22 13.292 1054.77 13.988C1054.34 14.684 1053.7 15.032 1052.85 15.032C1052.03 15.032 1051.4 14.684 1050.96 13.988C1050.53 13.292 1050.31 12.29 1050.31 10.982C1050.31 9.674 1050.53 8.678 1050.96 7.994C1051.39 7.31 1052.03 6.968 1052.87 6.968ZM1060.68 7.148L1053.55 20H1052.61L1059.74 7.148H1060.68ZM1052.87 7.76C1051.76 7.76 1051.21 8.834 1051.21 10.982C1051.21 13.154 1051.76 14.24 1052.85 14.24C1053.98 14.24 1054.54 13.154 1054.54 10.982C1054.54 9.926 1054.4 9.128 1054.13 8.588C1053.86 8.036 1053.44 7.76 1052.87 7.76ZM1060.41 12.116C1061.26 12.116 1061.9 12.464 1062.33 13.16C1062.77 13.856 1062.98 14.846 1062.98 16.13C1062.98 17.438 1062.76 18.44 1062.32 19.136C1061.87 19.832 1061.23 20.18 1060.39 20.18C1059.56 20.18 1058.93 19.832 1058.5 19.136C1058.07 18.44 1057.85 17.438 1057.85 16.13C1057.85 14.822 1058.07 13.826 1058.5 13.142C1058.93 12.458 1059.57 12.116 1060.41 12.116ZM1060.41 12.908C1059.3 12.908 1058.75 13.982 1058.75 16.13C1058.75 18.302 1059.3 19.388 1060.39 19.388C1061.52 19.388 1062.08 18.302 1062.08 16.13C1062.08 15.074 1061.94 14.276 1061.67 13.736C1061.4 13.184 1060.98 12.908 1060.41 12.908Z" fill="#223843"/>
<path d="M1158.62 15.88V17.68H1149.6V15.88H1158.62ZM1149.6 20.64V18.76H1158.62V20.64H1149.6ZM1148.14 22.54H1149.6V21.84H1158.62V22.5H1160.14V14.7H1148.14V22.54ZM1162.8 10.18V8.84H1154.74V6.6C1156.94 6.36 1159 6.02 1160.64 5.58L1159.52 4.42C1156.62 5.18 1151.32 5.68 1146.82 5.92C1146.98 6.26 1147.16 6.82 1147.2 7.18C1149.12 7.1 1151.2 6.96 1153.22 6.76V8.84H1145.22V10.18H1151.64C1149.88 12.04 1147.26 13.74 1144.82 14.6C1145.16 14.9 1145.6 15.42 1145.8 15.78C1148.46 14.72 1151.38 12.62 1153.22 10.26V14.14H1154.74V10.26C1156.64 12.46 1159.64 14.5 1162.24 15.56C1162.46 15.2 1162.88 14.64 1163.22 14.36C1160.84 13.56 1158.14 11.92 1156.34 10.18H1162.8ZM1167.28 9.92C1167.14 8.74 1166.68 6.96 1166.12 5.58L1165.1 5.82C1165.62 7.2 1166.08 9.02 1166.18 10.2L1167.28 9.92ZM1169.06 12.34H1171.26V10.94H1169.06V4.32H1167.7V10.94H1164.88V12.34H1167.46C1166.84 14.54 1165.7 17.14 1164.66 18.56C1164.92 18.94 1165.3 19.62 1165.46 20.06C1166.24 18.86 1167.08 16.98 1167.7 15.04V22.5H1169.06V14.62C1169.66 15.66 1170.38 16.98 1170.64 17.64L1171.64 16.5C1171.26 15.88 1169.6 13.46 1169.06 12.78V12.34ZM1170.24 10.22C1170.74 9.12 1171.36 7.26 1171.82 5.78L1170.6 5.48C1170.32 6.8 1169.76 8.76 1169.32 9.92L1170.24 10.22ZM1174.64 18.22V16.74H1180.4V18.22H1174.64ZM1180.4 14.18V15.66H1174.64V14.18H1180.4ZM1181.8 13.04H1173.22V22.52H1174.64V19.28H1180.4V21C1180.4 21.22 1180.34 21.3 1180.08 21.3C1179.84 21.3 1179.02 21.3 1178.12 21.28C1178.32 21.64 1178.48 22.14 1178.54 22.52C1179.78 22.52 1180.6 22.5 1181.12 22.3C1181.66 22.08 1181.8 21.72 1181.8 21V13.04ZM1178.12 10.7V9.34H1182.18V8.26H1178.12V7.04H1182.62V5.9H1178.12V4.3H1176.7V5.9H1172.52V7.04H1176.7V8.26H1173.02V9.34H1176.7V10.7H1171.96V11.84H1183.12V10.7H1178.12ZM1200.98 7.92H1198.8V6.5H1200.98V7.92ZM1200.98 10.32H1198.8V8.86H1200.98V10.32ZM1192.26 8.86H1194.24V10.32H1192.26V8.86ZM1192.26 6.5H1194.24V7.92H1192.26V6.5ZM1197.56 8.86V10.32H1195.46V8.86H1197.56ZM1197.56 6.5V7.92H1195.46V6.5H1197.56ZM1202.32 5.52H1198.8V4.26H1197.56V5.52H1195.46V4.26H1194.24V5.52H1190.98V11.32H1202.32V5.52ZM1189.84 6.5C1189.16 5.82 1187.74 4.96 1186.62 4.44L1185.76 5.5C1186.9 6.06 1188.3 6.98 1188.94 7.66L1189.84 6.5ZM1189.04 11.68C1188.32 11.06 1186.86 10.28 1185.66 9.8L1184.86 10.88C1186.04 11.4 1187.48 12.26 1188.18 12.9L1189.04 11.68ZM1188.16 15.12C1187.3 17.36 1186.1 19.94 1185.28 21.46L1186.62 22.3C1187.52 20.46 1188.56 18.04 1189.32 15.96L1188.16 15.12ZM1194.74 17.6H1196.74C1197.18 18.58 1197.76 19.46 1198.5 20.2C1197.22 20.4 1195.92 20.62 1194.74 20.82V17.6ZM1201.86 17.66C1201.22 18.14 1200.14 18.76 1199.24 19.2C1198.76 18.72 1198.36 18.18 1198.04 17.6H1203.14V16.48H1191.88C1191.92 15.94 1191.94 15.44 1191.94 14.96V13.46H1202.88V12.3H1190.62V14.94C1190.62 16.94 1190.4 19.72 1188.66 21.74C1188.98 21.9 1189.58 22.28 1189.8 22.5C1190.94 21.1 1191.5 19.3 1191.76 17.6H1193.42V21.04C1192.88 21.12 1192.4 21.2 1191.96 21.26L1192.28 22.46C1194.02 22.16 1196.38 21.74 1198.6 21.32L1198.54 20.24C1199.58 21.28 1200.9 22.04 1202.46 22.48C1202.64 22.14 1203.02 21.64 1203.3 21.36C1202.04 21.08 1200.94 20.56 1200.04 19.88C1200.9 19.5 1201.9 19 1202.7 18.42L1201.86 17.66ZM1201.66 15.44V14.46H1192.78V15.44H1201.66ZM1222.8 7.6V6.24H1215.34V4.28H1213.82V6.24H1206.48V11.96C1206.48 14.84 1206.34 18.88 1204.7 21.72C1205.04 21.88 1205.66 22.3 1205.92 22.56C1207.64 19.54 1207.88 15.04 1207.88 11.96V7.6H1222.8ZM1218 11.06V13.16H1213.16V11.06H1218ZM1219.44 14.36V11.06H1222.66V9.84H1219.44V8.1H1218V9.84H1213.16V8.1H1211.74V9.84H1208.56V11.06H1211.74V14.36H1219.44ZM1219.12 16.84C1218.3 17.9 1217.12 18.72 1215.74 19.38C1214.38 18.7 1213.26 17.86 1212.5 16.84H1219.12ZM1220.36 15.56L1220.1 15.62H1208.8V16.84H1211.88L1211.08 17.14C1211.88 18.28 1212.94 19.24 1214.22 20C1212.34 20.66 1210.22 21.06 1208.06 21.28C1208.28 21.6 1208.58 22.16 1208.68 22.52C1211.16 22.22 1213.6 21.68 1215.72 20.8C1217.62 21.68 1219.86 22.24 1222.3 22.56C1222.46 22.18 1222.84 21.6 1223.16 21.3C1221.02 21.08 1219.02 20.66 1217.28 20.04C1219 19.06 1220.4 17.78 1221.3 16.06L1220.36 15.56Z" fill="#223843"/>
</svg>
